<?xml version="1.0" standalone="no"?>
<svg version="1.0" xmlns="http://www.w3.org/2000/svg"
 width="500" height="500" viewBox="263 260 435 435"
 preserveAspectRatio="xMidYMid meet">
<rect x="263" y="260" width="435" height="435" fill="white"/>
<g transform="translate(0,980) scale(0.1,-0.1)"
fill="#000000" stroke="none">
<path d="M4860 6765 c-8 -9 -10 -27 -6 -47 21 -110 20 -123 -14 -151 -30 -26
-36 -27 -146 -27 -64 0 -124 -4 -134 -10 -10 -5 -36 -43 -58 -83 -103 -191
-318 -426 -488 -533 -116 -72 -108 -62 -112 -148 -2 -42 -1 -97 2 -121 6 -39
13 -49 52 -76 30 -21 53 -29 67 -26 12 3 58 15 102 26 97 25 177 26 350 5 247
-31 318 -7 449 151 23 28 25 29 32 10 12 -30 -22 -173 -57 -243 -39 -76 -131
-182 -224 -260 -39 -31 -166 -122 -283 -201 -118 -79 -241 -169 -274 -199 -68
-63 -118 -142 -118 -187 0 -29 2 -31 128 -74 70 -25 144 -52 164 -60 l38 -16
-65 -77 c-78 -92 -83 -120 -29 -143 106 -44 83 -118 -84 -272 -140 -130 -168
-192 -117 -267 30 -44 32 -76 7 -97 -15 -13 -19 -34 -21 -125 -2 -103 -1 -111
21 -131 42 -39 159 -70 368 -95 163 -20 702 -17 860 5 147 21 257 47 302 74
l33 19 3 120 c2 110 1 122 -18 139 -26 24 -25 48 4 80 31 34 36 61 19 120 -12
41 -33 66 -138 169 -72 71 -126 132 -130 147 -14 55 -3 81 45 109 25 14 46 34
48 44 2 10 -21 48 -55 89 -32 40 -62 77 -66 84 -5 8 16 41 54 85 154 184 267
423 316 673 27 138 25 445 -5 582 -60 275 -185 513 -365 691 -101 101 -182
159 -301 218 -94 46 -135 54 -156 29z m327 -217 c224 -177 398 -498 444 -821
16 -113 13 -334 -6 -442 -34 -195 -113 -394 -221 -555 -55 -82 -69 -93 -24
-17 90 150 162 335 202 520 29 137 32 436 5 570 -62 309 -220 582 -447 771
-63 52 -28 33 47 -26z m163 -2219 c0 -4 -6 -9 -14 -12 -9 -4 -13 4 -14 26 -1
30 0 31 14 13 8 -11 14 -23 14 -27z m167 -453 c46 -54 52 -82 23 -109 l-22
-22 6 22 c11 36 -18 87 -96 170 -40 43 -80 87 -88 98 -23 31 138 -114 177
-159z m23 -368 c0 -51 -3 -68 -10 -58 -16 24 -11 130 6 130 2 0 4 -33 4 -72z"/>
</g>
</svg>
